# xmcd
#
# Track frame offsets:
#	150
#	12547
#	22401
#	32856
#	44838
#	56594
#	68703
#	81369
#	92364
#	104007
#	119299
#	128428
#
# Disc length: 1833 seconds
#
# Revision: 2
# Processed by: cddbd v1.5PL3 Copyright (c) Steve Scherf et al.
# Submitted via: EasyCDDAExtractor 6.5.0.3
#
DISCID=a707270c
DTITLE=Various Artist - You Don't Know Me
DYEAR=2001
DGENRE=Country
TTITLE0=Bob Swerer - Just A Little Lovin'
TTITLE1=Here Comes Heaven
TTITLE2=I Think It's Best To Forget Me
TTITLE3=There She Goes
TTITLE4=You Don't Know Me
TTITLE5=Today I Started Lovin' You Again
TTITLE6=Lonely Again
TTITLE7=Too Many Rivers To Cross
TTITLE8=Cattle Call
TTITLE9=Fool For Your Love
TTITLE10=Misty Blue
TTITLE11=What's He Doin' In My World
EXTD=
EXTT0=
EXTT1=
EXTT2=
EXTT3=
EXTT4=
EXTT5=
EXTT6=
EXTT7=
EXTT8=
EXTT9=
EXTT10=
EXTT11=
PLAYORDER=
